PathFileType  4	(X/Y/Z) C:\Users\antoi\Documents\MyRepositories\mobilecap\ResultsAnalysis
DataRate	CameraRate	NumFrames	NumMarkers	Units	OrigDataRate	OrigDataStartFrame	OrigNumFrames
100.0	100.0	4	55	mm	100.0	259	517
Frame#	Time	r_knee			r_shank_antsup			r_ankle			r_calc			r_5meta			r_toe			L_knee			L_shank_antsup			L_ankle			L_calc			L_5meta			L_toe			r_mknee			r_mankle			L_mknee			L_mankle			r_sh2			r_sh3			r_sh4			L_sh2			L_sh3			r_thigh1			r_thigh2			r_thigh3			r_thigh4			r_thigh5			L_thigh1			L_thigh2			L_thigh3			L_thigh4			r.ASIS			r.PSIS			L.ASIS			L.PSIS			C7			R_Shoulder			L_Shoulder			R_Sternum			L_Sternum			R_humerus			R_elbow_med			R_elbow_lat			R_forearm			R_wrist_radius			R_wrist_ulna			L_humerus			L_elbow_med			L_elbow_lat			L_forearm			L_wrist_radius			L_wrist_ulna			R_HJC			L_HJC			R_HJC_reg			L_HJC_reg			
		X1	Y1	Z1	X2	Y2	Z2	X3	Y3	Z3	X4	Y4	Z4	X5	Y5	Z5	X6	Y6	Z6	X7	Y7	Z7	X8	Y8	Z8	X9	Y9	Z9	X10	Y10	Z10	X11	Y11	Z11	X12	Y12	Z12	X13	Y13	Z13	X14	Y14	Z14	X15	Y15	Z15	X16	Y16	Z16	X17	Y17	Z17	X18	Y18	Z18	X19	Y19	Z19	X20	Y20	Z20	X21	Y21	Z21	X22	Y22	Z22	X23	Y23	Z23	X24	Y24	Z24	X25	Y25	Z25	X26	Y26	Z26	X27	Y27	Z27	X28	Y28	Z28	X29	Y29	Z29	X30	Y30	Z30	X31	Y31	Z31	X32	Y32	Z32	X33	Y33	Z33	X34	Y34	Z34	X35	Y35	Z35	X36	Y36	Z36	X37	Y37	Z37	X38	Y38	Z38	X39	Y39	Z39	X40	Y40	Z40	X41	Y41	Z41	X42	Y42	Z42	X43	Y43	Z43	X44	Y44	Z44	X45	Y45	Z45	X46	Y46	Z46	X47	Y47	Z47	X48	Y48	Z48	X49	Y49	Z49	X50	Y50	Z50	X51	Y51	Z51	X52	Y52	Z52	X53	Y53	Z53	X54	Y54	Z54	X55	Y55	Z55	

259	2.58000000	-217.76965	500.01890	-435.00810	-190.80048	409.42239	-437.99500	-283.77859	93.58178	-433.62838	-343.46789	57.81721	-478.23231	-162.67717	43.67043	-389.95710	-129.47138	70.26283	-446.27499	-218.41155	503.72051	-765.33345	-190.55410	420.68533	-758.59701	-274.87199	97.87448	-772.91610	-345.30761	50.16381	-725.48897	-167.71333	41.00168	-813.63358	-121.11710	64.95046	-756.91368	-232.35511	483.59260	-551.93165	-261.36657	110.95623	-509.77947	-229.32959	490.76671	-646.38761	-255.14306	103.74548	-691.79076	-203.76071	296.61342	-435.00398	-253.26237	416.10895	-395.15132	-271.34803	303.16428	-388.97323	-269.17336	443.94707	-801.64845	-284.39657	321.98950	-810.55041	-143.83687	778.96495	-430.66362	-145.83195	668.04265	-436.07559	-199.76039	642.43784	-404.11486	-254.44768	776.69952	-410.19383	-250.27794	661.00664	-419.42179	-126.23535	748.35660	-766.07617	-125.62436	608.40697	-749.71136	-229.50684	744.51339	-807.26226	-231.56301	612.77040	-779.91236	-108.16585	964.45543	-477.31812	-311.74356	1011.26026	-565.90877	-105.50282	963.12397	-733.84918	-308.02414	1011.02283	-659.03141	-277.39790	1463.08419	-611.66030	-216.22787	1431.28513	-441.82279	-187.97618	1434.45975	-760.61793	-151.07719	1391.67236	-578.67695	-151.22947	1394.46803	-624.39936	-177.07929	1300.27309	-391.33213	-264.29999	1098.20100	-426.03907	-248.22666	1109.77380	-360.09917	-186.68548	1048.56537	-345.75236	-128.34271	889.38689	-382.85491	-155.43730	888.13564	-339.65477	-155.96732	1293.39995	-815.31256	-241.14801	1096.42928	-783.00839	-206.94747	1107.73968	-855.08335	-152.26275	1052.47286	-855.04122	-101.20799	883.07484	-821.30754	-126.68299	884.32443	-866.88788	-198.45940	883.48565	-506.25121	-193.15680	883.06906	-695.73908	-188.38962	891.62571	-516.62244	-181.63216	891.19424	-685.80891	
260	2.59000000	-217.75965	500.01447	-434.97729	-190.80205	409.38767	-438.06275	-283.80447	93.53269	-433.72872	-343.46332	57.81475	-478.22405	-162.67316	43.63496	-389.97746	-129.46812	70.25591	-446.29317	-218.40515	503.69879	-765.33649	-190.58130	420.67159	-758.58073	-274.85799	97.84433	-772.90909	-345.31175	50.11922	-725.47726	-167.71352	40.98605	-813.63995	-121.11514	64.93433	-756.91786	-232.35500	483.59721	-551.93833	-261.37170	110.91907	-509.77963	-229.29176	490.74496	-646.42673	-255.14202	103.74676	-691.78859	-203.75183	296.57717	-435.02763	-253.18572	416.01370	-395.21615	-271.34974	303.16246	-388.97532	-269.15114	443.92421	-801.65508	-284.42694	321.90830	-810.40617	-143.75181	778.84168	-430.72701	-145.81395	668.03821	-436.06982	-199.75096	642.40381	-404.12339	-254.42773	776.70570	-410.16299	-250.24489	661.02760	-419.39132	-126.09070	748.27943	-765.90692	-125.62023	608.38663	-749.71752	-229.47892	744.49908	-807.25443	-231.52737	612.77167	-779.95931	-108.09904	964.42326	-477.34500	-311.69931	1011.22482	-565.89032	-105.43896	963.05003	-733.77961	-307.97072	1011.00512	-659.01072	-277.30014	1463.06220	-611.67561	-216.10007	1431.29237	-441.85586	-187.86481	1434.45171	-760.69064	-150.99008	1391.65734	-578.64655	-151.05654	1394.48269	-624.38177	-176.95117	1300.26396	-391.38465	-264.20001	1098.22508	-426.05479	-248.11496	1109.78670	-360.14941	-186.58242	1048.55927	-345.80347	-128.23946	889.37685	-382.91882	-155.35608	888.13479	-339.69075	-155.91180	1293.38416	-815.30297	-241.12839	1096.41694	-783.00452	-206.90211	1107.66072	-855.02608	-152.24792	1052.43557	-855.01564	-101.18608	883.04866	-821.24907	-126.65979	884.22866	-866.69940	-198.41267	883.45693	-506.21852	-193.11184	883.01732	-695.70640	-188.32170	891.57530	-516.65439	-181.54989	891.17629	-685.77678	
261	2.60000000	-217.74586	500.04601	-434.95953	-190.81701	409.37997	-438.09831	-283.79471	93.52613	-433.71884	-343.46615	57.80757	-478.20486	-162.65630	43.62924	-390.01045	-129.45933	70.24961	-446.30600	-218.39803	503.67801	-765.32627	-190.58167	420.68584	-758.61396	-274.87367	97.85463	-772.92721	-345.33265	50.05543	-725.44740	-167.71500	40.97409	-813.64204	-121.11452	64.91589	-756.92134	-232.36283	483.60687	-551.94268	-261.37995	110.88756	-509.78223	-229.25355	490.72139	-646.48247	-255.13898	103.75859	-691.78687	-203.74508	296.52843	-435.04271	-253.15968	415.98741	-395.26524	-271.35077	303.17367	-388.97203	-269.13360	443.88132	-801.60802	-284.45340	321.83400	-810.30244	-143.71198	778.78538	-430.74593	-145.80914	668.03175	-436.03900	-199.74083	642.39823	-404.11510	-254.38248	776.74394	-410.10485	-250.19836	661.05885	-419.33244	-125.93932	748.32943	-765.70127	-125.61039	608.36598	-749.72422	-229.44933	744.48602	-807.25285	-231.51080	612.74490	-780.00158	-108.04003	964.39840	-477.38548	-311.65331	1011.19006	-565.79482	-105.36477	962.98719	-733.69604	-307.90947	1010.99555	-658.99158	-277.21876	1463.04396	-611.66903	-215.97813	1431.28279	-441.87631	-187.77914	1434.43891	-760.73308	-150.90405	1391.67170	-578.63068	-150.93714	1394.43731	-624.38399	-176.85199	1300.25754	-391.37065	-264.10625	1098.25341	-426.07243	-247.98676	1109.81068	-360.25408	-186.49809	1048.58823	-345.81256	-128.14115	889.37191	-382.97327	-155.26051	888.13973	-339.74998	-155.85813	1293.35727	-815.31548	-241.10823	1096.40726	-783.00126	-206.86252	1107.58682	-854.93246	-152.23623	1052.39591	-855.01314	-101.17449	883.02749	-821.21256	-126.65251	884.16774	-866.59821	-198.35478	883.42997	-506.17276	-193.06686	882.97712	-695.66096	-188.24785	891.53038	-516.70329	-181.45727	891.17762	-685.74334	
262	2.61000000	-217.70090	500.05783	-434.98938	-190.80689	409.39379	-438.07488	-283.75155	93.56143	-433.63911	-343.47480	57.79350	-478.21026	-162.64874	43.64001	-389.96257	-129.47395	70.23790	-446.28215	-218.38834	503.66778	-765.31971	-190.53796	420.71678	-758.66664	-274.88461	97.86482	-772.94321	-345.33591	50.02424	-725.43354	-167.71743	40.96283	-813.64418	-121.11498	64.89515	-756.92813	-232.36629	483.61065	-551.93994	-261.38472	110.87531	-509.78876	-229.29477	490.74339	-646.43625	-255.13579	103.76897	-691.78518	-203.74205	296.51789	-435.04072	-253.19630	416.01795	-395.24341	-271.34282	303.17908	-388.96908	-269.12570	443.85097	-801.57070	-284.41419	321.85357	-810.39538	-143.69556	778.78888	-430.74407	-145.79946	668.01253	-436.01966	-199.71685	642.40857	-404.06830	-254.33955	776.78240	-410.03487	-250.17936	661.06848	-419.32359	-125.83343	748.40982	-765.57113	-125.59331	608.35530	-749.73487	-229.42086	744.48202	-807.26920	-231.49991	612.73297	-780.02213	-107.98023	964.38757	-477.39897	-311.62251	1011.16991	-565.73451	-105.30305	962.95904	-733.66577	-307.82279	1011.01574	-659.05185	-277.14001	1463.03637	-611.63634	-215.84196	1431.25946	-441.90365	-187.71288	1434.42343	-760.76085	-150.80034	1391.65099	-578.68023	-150.87076	1394.40311	-624.39132	-176.73509	1300.25963	-391.38263	-264.02526	1098.26794	-426.07480	-247.84791	1109.81923	-360.35131	-186.41856	1048.62020	-345.80776	-128.05319	889.37085	-382.99260	-155.14212	888.14445	-339.83289	-155.79915	1293.30269	-815.39137	-241.09057	1096.39319	-783.00407	-206.83561	1107.54373	-854.88811	-152.21742	1052.35962	-855.03591	-101.16991	883.00598	-821.19911	-126.65718	884.13541	-866.58315	-198.30979	883.41980	-506.16757	-193.01146	882.96569	-695.65547	-188.21231	891.46259	-516.78420	-181.33076	891.18329	-685.79179	
